<?xml version="1.0" standalone="no"?>
<!DOCTYPE svg PUBLIC "-//W3C//DTD SVG 20010904//EN"
 "http://www.w3.org/TR/2001/REC-SVG-20010904/DTD/svg10.dtd">
<svg version="1.0" xmlns="http://www.w3.org/2000/svg"
 width="512.000000pt" height="512.000000pt" viewBox="0 0 512.000000 512.000000"
 preserveAspectRatio="xMidYMid meet">
<metadata>
Created by potrace 1.14, written by Peter Selinger 2001-2017
</metadata>
<g transform="translate(0.000000,512.000000) scale(0.100000,-0.100000)"
fill="#000000" stroke="none">
<path d="M2651 3723 c-19 -71 -65 -243 -103 -383 -38 -140 -71 -262 -73 -270
-2 -8 -58 -220 -125 -470 -67 -250 -132 -493 -145 -540 -12 -47 -52 -197 -89
-335 -36 -137 -70 -264 -76 -281 -21 -64 -18 -68 78 -92 48 -12 138 -35 201
-52 62 -17 115 -29 116 -28 1 2 7 21 13 43 5 22 20 76 32 120 12 44 23 85 24
90 7 26 21 79 48 179 16 59 31 115 33 125 4 15 15 57 71 266 14 50 33 122 43
160 11 39 67 250 127 470 59 220 122 456 140 525 84 320 123 460 128 468 3 5
0 14 -7 20 -9 8 -380 112 -398 112 -3 0 -20 -57 -38 -127z"/>
<path d="M820 3165 c-327 -328 -597 -598 -600 -601 -2 -3 267 -276 598 -607
l603 -603 145 145 c79 80 145 150 147 154 1 4 -200 210 -447 458 l-450 449
448 449 c247 247 449 451 450 455 1 7 -285 296 -294 296 -3 0 -273 -268 -600
-595z"/>
<path d="M3549 3616 c-79 -80 -143 -148 -142 -153 2 -4 204 -209 450 -456
l448 -447 -453 -453 -452 -452 144 -145 c80 -80 149 -146 153 -147 11 -4 1198
1184 1198 1197 0 11 -1185 1200 -1195 1200 -4 0 -71 -65 -151 -144z"/>
</g>
</svg>
